<?xml version="1.0" encoding="utf-8"?>
<!-- Svg Vector Icons : http://www.onlinewebfonts.com/icon -->
<!DOCTYPE svg PUBLIC "-//W3C//DTD SVG 1.1//EN" "http://www.w3.org/Graphics/SVG/1.1/DTD/svg11.dtd">
<svg version="1.1" xmlns="http://www.w3.org/2000/svg" xmlns:xlink="http://www.w3.org/1999/xlink" x="0px" y="0px" viewBox="0 0 1000 1000" enable-background="new 0 0 1000 1000" xml:space="preserve">
<metadata> Svg Vector Icons : http://www.onlinewebfonts.com/icon </metadata>
<g><g transform="translate(0.000000,511.000000) scale(0.100000,-0.100000)"><path d="M6598.1,4890.2c-457.5-203.9-606.5-290.2-935.9-541.1c-384.3-292.8-551.6-569.9-1124.1-1856c-164.7-368.6-300.6-666.6-305.8-661.4c-18.3,18.3,54.9,431.3,125.5,705.8c39.2,159.5,128.1,436.6,193.4,622.2c65.4,183,109.8,332,96.7,332c-54.9,0-407.8-167.3-606.5-284.9c-436.6-264-980.3-750.3-1257.4-1126.7c-650.9-888.8-943.7-1641.7-1118.9-2875.6l-73.2-509.8l-2.6,240.5c-5.2,467.9,47.1,883.6,180.4,1474.4c73.2,311.1,130.7,575.1,130.7,585.6c0,10.5-81-68-183-175.1C1403.8,490.6,1116.3-16.6,996-458.4c-54.9-206.5-91.5-677.1-62.7-852.2c13.1-81,20.9-151.6,15.7-159.5c-5.2-5.2-70.6,20.9-143.8,57.5c-73.2,39.2-133.3,60.1-133.3,49.7c0-13.1,36.6-143.8,78.4-295.4c41.8-151.6,78.4-274.5,78.4-277.1c0,0-107.2,13.1-240.5,34c-130.7,18.3-243.1,28.8-248.3,23.5c-7.8-7.8,52.3-91.5,130.7-190.8c78.4-96.7,206.5-290.2,287.6-426.1l143.8-245.7l-65.4-146.4c-381.7-836.5-784.2-1924-732-1976.3c7.8-7.9,102,0,211.7,18.3l196.1,34l130.7,400c847,2580.2,2551.4,4974.7,4697.6,6600.7c1001.2,758.1,2107,1309.7,3134.3,1565.9c253.6,62.7,389.5,81,705.8,91.5l392.1,13.1L9167.8,3753c-1396-366-2554-920.2-3644.1-1746.2C4334.3,1107.5,2964.5-421.8,2188.1-1710.5C1963.3-2087,1599.9-2779.7,1620.8-2798c5.2-7.9,115-39.2,243.1-75.8c128.1-34,316.3-91.5,415.6-128.1l183-65.4l-143.8,128.1L2175-2811.1l653.5,2.6l653.5,2.6l-366,146.4c-248.3,96.7-420.9,185.6-538.5,271.9c-292.8,214.4-298,206.5,183,206.5c776.4,0,1558,183,2405,564.6c397.4,177.8,779,392.1,750.3,420.9c-7.9,7.8-109.8,23.5-230.1,36.6c-237.9,23.5-648.3,104.6-648.3,128.1c0,7.8,180.4,81,399.9,167.3C6049.2-628.3,6255.7-508,6919.7,14.8c193.5,154.2,494.1,373.8,666.6,488.8c287.6,190.8,781.6,580.3,763.3,598.6c-2.6,5.2-107.2-15.7-227.4-41.8C7570.6,940.2,6629.5,867,6159,906.2c-240.5,20.9-577.7,99.3-752.9,172.5c-107.2,47.1-94.1,47.1,721.5,47.1c752.9,0,862.7,7.8,1158.1,60.1c431.3,78.4,718.9,169.9,1006.4,313.7c467.9,232.7,739.8,447,1113.6,881c230.1,266.6,290.2,352.9,358.1,525.4c141.2,360.8,172.5,695.4,94.1,1071.8c-78.4,373.8-350.3,640.5-839.2,823.5c-577.7,214.4-875.7,248.3-1346.3,154.2c-376.4-78.4-538.5-190.8-886.2-624.8c-146.4-180.4-285-347.7-305.9-368.6c-36.6-36.6,185.6,402.6,457.5,909.7c65.4,117.6,112.4,214.4,107.2,214.4C7042.5,5086.2,6841.3,4997.4,6598.1,4890.2z"/></g></g>
</svg>