<?xml version="1.0" encoding="UTF-8" standalone="no"?>
<svg
   xmlns:dc="http://purl.org/dc/elements/1.1/"
   xmlns:cc="http://creativecommons.org/ns#"
   xmlns:rdf="http://www.w3.org/1999/02/22-rdf-syntax-ns#"
   xmlns:svg="http://www.w3.org/2000/svg"
   xmlns="http://www.w3.org/2000/svg"
   xmlns:sodipodi="http://sodipodi.sourceforge.net/DTD/sodipodi-0.dtd"
   xmlns:inkscape="http://www.inkscape.org/namespaces/inkscape"
   enable-background="new 0 0 1024 1024"
   height="1024px"
   id="Layer_1"
   version="1.1"
   viewBox="0 0 1024 1024"
   width="1024px"
   xml:space="preserve"
   inkscape:version="0.48.2 r9819"
   sodipodi:docname="media.svg"><metadata
     id="metadata15"><rdf:RDF><cc:Work
         rdf:about=""><dc:format>image/svg+xml</dc:format><dc:type
           rdf:resource="http://purl.org/dc/dcmitype/StillImage" /><dc:title></dc:title></cc:Work></rdf:RDF></metadata><defs
     id="defs13" /><sodipodi:namedview
     pagecolor="#ffffff"
     bordercolor="#666666"
     borderopacity="1"
     objecttolerance="10"
     gridtolerance="10"
     guidetolerance="10"
     inkscape:pageopacity="0"
     inkscape:pageshadow="2"
     inkscape:window-width="1366"
     inkscape:window-height="706"
     id="namedview11"
     showgrid="false"
     inkscape:zoom="0.48344421"
     inkscape:cx="189.31541"
     inkscape:cy="512"
     inkscape:window-x="-8"
     inkscape:window-y="-8"
     inkscape:window-maximized="1"
     inkscape:current-layer="g5" /><g
     id="g5"><g
       id="g3763"><path
         clip-rule="evenodd"
         d="m 511.847,757.279 c 0,10.586 0,20.188 0,30.832 80.904,0 161.375,0 241.785,0 0,37.582 0,74.129 -0.01,110.672 0,0.328 -0.164,0.652 -0.221,0.984 -5.341,30.986 -22.589,54.121 -47.641,72.006 -30.986,22.119 -66.561,32.812 -103.044,41.27 -85.164,19.752 -168.318,12.871 -248.585,-21.24 -19.08,-8.107 -36.901,-20.795 -52.854,-34.273 -22.846,-19.307 -33.87,-45.564 -33.9,-75.832 -0.073,-78.047 -0.805,-156.102 0.225,-234.133 0.925,-70.191 55.389,-122.805 125.531,-123.01 77.975,-0.227 155.967,-1.086 233.918,0.23 78.809,1.334 145.767,-58.785 156.637,-133.643 1.251,-8.611 1.377,-17.432 1.425,-26.162 0.163,-30.611 0.064,-61.224 0.064,-91.837 0,-3.605 0,-7.213 0,-11.838 12.517,0 23.854,0 35.193,0 18.148,0.002 36.3,0.142 54.448,-0.023 43.185,-0.395 75.38,18.446 97.422,55.311 16.096,26.917 24.123,56.681 30.942,86.92 10.478,46.456 16.828,93.305 13.369,141.044 -4.067,56.15 -20.297,108.848 -47.128,158.115 -20.56,37.752 -53.253,54.877 -96.167,54.734 -115.953,-0.381 -231.907,-0.129 -347.859,-0.127 -4.314,0 -8.628,0 -13.55,0 z M 648.96,850.41 c -25.734,-0.252 -46.009,19.758 -46.221,45.611 -0.214,25.793 19.813,46.887 44.912,47.307 25.027,0.418 46.009,-20.428 46.279,-45.986 0.273,-26 -19.544,-46.684 -44.97,-46.932 z"
         id="path7"
         inkscape:connector-curvature="0"
         style="fill-rule:evenodd;fill:#ffffff" /><path
         clip-rule="evenodd"
         d="m 510.621,261.305 c 0,-10.549 0,-20.083 0,-30.812 -81.056,0 -161.535,0 -242.22,0 -0.474,-3.074 -1.038,-5.012 -1.03,-6.947 0.141,-34.312 -0.533,-68.657 0.749,-102.928 2.042,-54.623 23.93,-84.223 76.56,-98.907 31.827,-8.878 64.892,-14.673 97.789,-18.063 64.773,-6.675 129.604,-4.182 193.803,7.426 37.246,6.734 68.971,24.009 92.947,53.935 16.724,20.873 25.52,44.756 25.516,71.703 -0.017,77.714 0.374,155.43 -0.115,233.142 -0.449,71.218 -53.786,123.692 -125.062,123.814 -78.651,0.136 -157.304,-0.036 -235.956,0.057 -76.784,0.088 -139.957,52.139 -154.399,127.492 -1.883,9.83 -2.224,20.059 -2.314,30.111 -0.285,31.285 -0.105,62.574 -0.105,93.861 0,3.617 0,7.23 0,12.09 -7.474,0 -13.77,0.051 -20.063,-0.008 -24.864,-0.227 -49.776,0.426 -74.576,-0.945 C 103.118,754.166 73.841,734.512 52.207,702.572 34.121,675.869 26.216,645.408 18.848,614.568 -0.209,534.822 3.376,455.854 25.584,377.35 46.252,304.287 102.427,261.478 178.521,261.352 c 106.549,-0.177 213.097,-0.047 319.646,-0.047 3.954,0 7.909,0 12.454,0 z M 373.439,75.404 c -25.309,0.176 -45.207,20.863 -45.057,46.848 0.149,25.682 20.729,46.29 45.985,46.043 25.146,-0.245 45.418,-21.308 45.201,-46.962 C 419.35,95.679 398.811,75.23 373.439,75.404 z"
         id="path9"
         inkscape:connector-curvature="0"
         style="fill-rule:evenodd;fill:#ffffff;fill-opacity:0.50196081" /></g></g></svg>