<?xml version="1.0" encoding="UTF-8" standalone="no"?>
<svg
   xmlns:dc="http://purl.org/dc/elements/1.1/"
   xmlns:cc="http://creativecommons.org/ns#"
   xmlns:rdf="http://www.w3.org/1999/02/22-rdf-syntax-ns#"
   xmlns:svg="http://www.w3.org/2000/svg"
   xmlns="http://www.w3.org/2000/svg"
   xmlns:sodipodi="http://sodipodi.sourceforge.net/DTD/sodipodi-0.dtd"
   xmlns:inkscape="http://www.inkscape.org/namespaces/inkscape"
   version="1.0"
   width="1280.000000pt"
   height="640.000000pt"
   viewBox="0 0 1280.000000 640.000000"
   preserveAspectRatio="xMidYMid meet"
   id="svg14"
   sodipodi:docname="suits.svg"
   inkscape:version="0.92.4 (5da689c313, 2019-01-14)">
  <defs
     id="defs18" />
  <sodipodi:namedview
     pagecolor="#ffffff"
     bordercolor="#666666"
     borderopacity="1"
     objecttolerance="10"
     gridtolerance="10"
     guidetolerance="10"
     inkscape:pageopacity="0"
     inkscape:pageshadow="2"
     inkscape:window-width="1920"
     inkscape:window-height="1001"
     id="namedview16"
     showgrid="false"
     showguides="true"
     inkscape:guide-bbox="true"
     inkscape:zoom="0.70910507"
     inkscape:cx="1122.7729"
     inkscape:cy="426.66667"
     inkscape:window-x="-9"
     inkscape:window-y="-9"
     inkscape:window-maximized="1"
     inkscape:current-layer="svg14">
  </sodipodi:namedview>
  <metadata
     id="metadata2">
Created by potrace 1.15, written by Peter Selinger 2001-2017
<rdf:RDF>
  <cc:Work
     rdf:about="">
    <dc:format>image/svg+xml</dc:format>
    <dc:type
       rdf:resource="http://purl.org/dc/dcmitype/StillImage" />
  </cc:Work>
</rdf:RDF>
</metadata>
  <g
     id="g853">
    <path
       d="m 129.5,170 c -8.7,13.9 -19.6,25.5 -57,60 -39.3,36.4 -53.3,52.5 -63,72.5 -6.3000003,13 -7.9000003,19.8 -7.9000003,33.5 0,9.6 0.4,12.5 2.4,17.5 C 15.5,383.3 50,399.9 83.7,391.9 c 9.1,-2.1 22.8,-9.5 29.8,-16 3.6,-3.4 6.5,-5.7 6.5,-5.3 -0.1,2.6 -3.2,19.4 -5.5,29.8 -6.2,27.8 -17.7,51.6 -30.2,62.6 -4.6,4 -14.3,9.2 -20.3,10.8 -2.3,0.7 20.6,1 67.5,1 68.9,0 70.8,0 65.5,-1.7 -10.5,-3.4 -17.1,-8.1 -25.4,-18.4 -12.2,-15.3 -23.5,-48 -28.1,-81.2 l -0.7,-5 5.4,5.2 c 7.2,7.1 9.4,8.7 17.4,12.7 10.8,5.4 18.1,7 31.9,7 13.8,0 20.8,-1.6 32.5,-7.2 9.8,-4.8 22.3,-16.9 26.9,-25.9 12.7,-25.4 4.8,-55.6 -23.3,-89.1 C 225,261 209.2,245.4 182,220.3 c -27.3,-25.2 -34.7,-33.2 -48.3,-52.8 -1.3,-1.8 -1.5,-1.7 -4.2,2.5 z"
       id="path4"
       inkscape:connector-curvature="0"
       style="fill:#3c763d;stroke:none;stroke-width:0.1" />
    <path
       d="m 1113.5,168.4 c -31.3,7 -51.2,32.9 -49.7,64.6 0.8,17 6.3,28.9 20.8,44.4 4.7,5.1 10.5,12.1 12.9,15.6 4.7,7 14.5,26.8 13.6,27.7 -1,1 -10.9,-6.8 -16.6,-13 -25.4,-27.9 -69.9,-28.7 -96,-1.7 -25.5,26.3 -24,68.5 3.2,92.5 7.3,6.4 21.4,13.2 31.1,15 9.8,1.9 15.5,1.9 24.9,0.1 14.1,-2.7 24,-8.1 36.3,-19.7 8.5,-8 25.1,-19.6 26.3,-18.5 1,1.1 -2.7,24.7 -5.8,36.3 -5.3,20.2 -12.5,34.6 -22.7,45.3 -8.1,8.6 -14.5,12.8 -24.2,15.6 l -7.6,2.3 h 70 c 68.1,-0.1 69.8,-0.1 63.5,-1.8 -25.9,-6.9 -43,-31.3 -51.9,-74.1 -1.1,-5.2 -2.3,-12.6 -2.7,-16.4 l -0.7,-7 3.9,2.4 c 7.5,4.5 12.9,8.3 18.1,12.7 2.8,2.3 5.4,4.3 5.8,4.3 0.4,0 2.9,2 5.5,4.4 6.1,5.4 17.3,11 26.5,13.2 9.4,2.2 27.5,1.5 35.8,-1.5 10.7,-3.8 18,-8.3 25.8,-16.1 12.8,-12.7 17.8,-23.8 18.6,-41.5 0.5,-9.3 0.2,-12.4 -1.6,-19.5 -1.2,-4.7 -2.4,-9.4 -2.6,-10.4 -0.9,-4.2 -7.4,-13.2 -14.2,-19.6 -16.3,-15.6 -41.2,-21.7 -63,-15.4 -9.4,2.7 -20.1,8.9 -30.3,17.5 -5.2,4.4 -11.7,9.6 -14.3,11.5 -4.5,3.3 -4.8,3.4 -4.2,1.2 1.4,-4.8 10.4,-22.5 14.1,-28 2.2,-3.1 7.8,-9.9 12.5,-15.1 14.7,-16.2 19.3,-26.9 19.3,-45.2 0,-15.5 -3.3,-25.6 -12.7,-38.1 -14.7,-19.5 -43,-29.5 -67.7,-24 z"
       id="path6"
       inkscape:connector-curvature="0"
       style="fill:#3c763d;stroke:none;stroke-width:0.1" />
    <path
       d="m 780.7,184.7 c -0.2,0.4 -1.2,3.4 -2.1,6.7 -1,3.2 -3.5,9.7 -5.7,14.5 -2.2,4.7 -3.9,8.8 -3.9,9 0.1,0.2 -0.3,0.7 -0.8,1 -0.5,0.3 -3.1,3.7 -5.7,7.6 -8.1,11.9 -19.5,25.4 -32.5,38.6 -18.7,18.8 -33.3,29.1 -73.8,52 l -20.2,11.4 4.7,1.3 c 14.9,4 39,15.2 53.8,24.9 31.7,21 55.5,48 72.1,81.8 5.4,10.8 12.9,30.8 14.6,39 0.6,2.3 0.1,3.5 5.6,-13.7 14,-43.6 42.9,-81.4 82.2,-107.3 14.9,-9.8 39.5,-21.3 52.5,-24.6 2.5,-0.6 4.4,-1.4 4.1,-1.6 -0.2,-0.3 -5.6,-2.2 -12,-4.3 -43,-14.5 -79.3,-42.4 -105,-80.8 -8.2,-12.3 -18.9,-33.5 -23.5,-46.7 -3.4,-9.6 -3.7,-10.1 -4.4,-8.8 z M 764.5,224 c -0.9,1.6 -1.8,3 -2.1,3 -0.2,0 0.2,-1.4 1.1,-3 0.9,-1.7 1.8,-3 2.1,-3 0.2,0 -0.2,1.3 -1.1,3 z"
       id="path8"
       inkscape:connector-curvature="0"
       style="fill:#3c763d;stroke:none;stroke-width:0.1" />
    <path
       d="m 374.5,202.6 c -1.6,0.3 -5.8,1.4 -9.3,2.5 -21.6,7.1 -37.8,24.4 -44.4,47.4 -1.8,6.5 -2.2,10.3 -2.1,20.5 0.1,19.7 5.2,36.3 17.4,57 12.2,20.6 22.7,33.7 58.4,73 31.2,34.3 44.4,51 51.9,65.7 1.4,2.9 2.8,5.3 3.1,5.3 0.2,0 2,-3 4,-6.8 8.1,-15.3 19,-28.8 54.3,-67.5 13.3,-14.4 27.1,-29.8 30.7,-34.2 20.8,-25 34.7,-49.2 40,-69.9 2.4,-9.6 5.3,-37.3 3.4,-33.1 -0.6,1.4 -0.7,0.4 -0.4,-3 0.4,-3.8 0.3,-4.6 -0.5,-3.5 -0.9,1.2 -1,0.7 -0.5,-1.9 0.5,-2.2 0.4,-3.1 -0.3,-2.7 -0.6,0.3 -0.8,-0.1 -0.6,-1.2 0.3,-0.9 -1.3,-5.3 -3.5,-9.7 -12.2,-24.2 -33.8,-37.7 -60,-37.7 -11.7,0.1 -17.2,1.3 -27.6,6.3 -20.1,9.6 -34.4,29.2 -37.7,51.9 -0.3,1.8 -0.8,0.7 -1.7,-3.5 -5.6,-25.7 -22.9,-45.3 -46.5,-52.7 -6,-1.9 -22,-3.1 -28.1,-2.2 z"
       id="path10"
       inkscape:connector-curvature="0"
       style="fill:#3c763d;stroke:none;stroke-width:0.1" />
  </g>
  <g
     inkscape:groupmode="layer"
     id="layer1"
     inkscape:label="Layer 1" />
</svg>
