<?xml version="1.0" encoding="UTF-8"?>
<!DOCTYPE svg PUBLIC "-//W3C//DTD SVG 1.1//EN" "http://www.w3.org/Graphics/SVG/1.1/DTD/svg11.dtd">
<svg xmlns="http://www.w3.org/2000/svg" xmlns:xlink="http://www.w3.org/1999/xlink" version="1.1" width="471px" height="201px" viewBox="-0.5 -0.5 471 201"><defs><clipPath id="mx-clip-290-70-30-30-0"><rect x="290" y="70" width="30" height="30"/></clipPath><clipPath id="mx-clip-326-70-144-30-0"><rect x="326" y="70" width="144" height="30"/></clipPath><clipPath id="mx-clip-326-100-144-30-0"><rect x="326" y="100" width="144" height="30"/></clipPath><clipPath id="mx-clip-326-130-144-30-0"><rect x="326" y="130" width="144" height="30"/></clipPath><clipPath id="mx-clip-326-160-144-30-0"><rect x="326" y="160" width="144" height="30"/></clipPath><clipPath id="mx-clip-0-30-30-30-0"><rect x="0" y="30" width="30" height="30"/></clipPath><clipPath id="mx-clip-36-30-144-30-0"><rect x="36" y="30" width="144" height="30"/></clipPath><clipPath id="mx-clip-36-60-144-30-0"><rect x="36" y="60" width="144" height="30"/></clipPath><clipPath id="mx-clip-36-90-144-30-0"><rect x="36" y="90" width="144" height="30"/></clipPath><clipPath id="mx-clip-36-120-144-30-0"><rect x="36" y="120" width="144" height="30"/></clipPath></defs><g><path d="M 290 70 L 290 40 L 470 40 L 470 70" fill="rgb(255, 255, 255)" stroke="#000000" stroke-miterlimit="10" pointer-events="all"/><path d="M 290 70 L 290 200 L 470 200 L 470 70" fill="none" stroke="#000000" stroke-miterlimit="10" pointer-events="none"/><path d="M 290 70 L 470 70" fill="none" stroke="#000000" stroke-miterlimit="10" pointer-events="none"/><path d="M 320 70 L 320 100 L 320 130 L 320 160 L 320 190" fill="none" stroke="#000000" stroke-miterlimit="10" pointer-events="none"/><g fill="rgb(0, 0, 0)" font-family="Helvetica" font-weight="bold" pointer-events="none" text-anchor="middle" font-size="12px"><rect fill="#FFFFFF" stroke="none" x="365" y="49" width="32" height="15" stroke-width="0"/><text x="379.5" y="59.5">Table</text></g><path d="M 290 70 M 470 70 M 470 100 L 290 100" fill="none" stroke="#000000" stroke-linecap="square" stroke-miterlimit="10" pointer-events="none"/><path d="M 290 70 M 320 70 M 320 100 M 290 100" fill="none" stroke="#000000" stroke-linecap="square" stroke-miterlimit="10" pointer-events="none"/><g fill="rgb(0, 0, 0)" font-family="Helvetica" font-weight="bold" pointer-events="none" clip-path="url(#mx-clip-290-70-30-30-0)" text-anchor="middle" font-size="12px"><rect fill="#FFFFFF" stroke="none" x="296" y="79" width="19" height="15" stroke-width="0"/><text x="304.5" y="89.5">PK</text></g><path d="M 320 70 M 470 70 M 470 100 M 320 100" fill="none" stroke="#000000" stroke-linecap="square" stroke-miterlimit="10" pointer-events="none"/><g fill="rgb(0, 0, 0)" font-family="Helvetica" font-weight="bold" text-decoration="underline" pointer-events="none" clip-path="url(#mx-clip-326-70-144-30-0)" font-size="12px"><rect fill="#FFFFFF" stroke="none" x="328" y="79" width="55" height="15" stroke-width="0"/><text x="327.5" y="89.5">UniqueID</text></g><path d="M 290 100 M 320 100 M 320 130 M 290 130" fill="none" stroke="#000000" stroke-linecap="square" stroke-miterlimit="10" pointer-events="none"/><path d="M 320 100 M 470 100 M 470 130 M 320 130" fill="none" stroke="#000000" stroke-linecap="square" stroke-miterlimit="10" pointer-events="none"/><g fill="rgb(0, 0, 0)" font-family="Helvetica" pointer-events="none" clip-path="url(#mx-clip-326-100-144-30-0)" font-size="12px"><rect fill="#FFFFFF" stroke="none" x="328" y="109" width="36" height="15" stroke-width="0"/><text x="327.5" y="119.5">Row 1</text></g><path d="M 290 130 M 320 130 M 320 160 M 290 160" fill="none" stroke="#000000" stroke-linecap="square" stroke-miterlimit="10" pointer-events="none"/><path d="M 320 130 M 470 130 M 470 160 M 320 160" fill="none" stroke="#000000" stroke-linecap="square" stroke-miterlimit="10" pointer-events="none"/><g fill="rgb(0, 0, 0)" font-family="Helvetica" pointer-events="none" clip-path="url(#mx-clip-326-130-144-30-0)" font-size="12px"><rect fill="#FFFFFF" stroke="none" x="328" y="139" width="36" height="15" stroke-width="0"/><text x="327.5" y="149.5">Row 2</text></g><path d="M 290 160 M 320 160 M 320 190 M 290 190" fill="none" stroke="#000000" stroke-linecap="square" stroke-miterlimit="10" pointer-events="none"/><path d="M 320 160 M 470 160 M 470 190 M 320 190" fill="none" stroke="#000000" stroke-linecap="square" stroke-miterlimit="10" pointer-events="none"/><g fill="rgb(0, 0, 0)" font-family="Helvetica" pointer-events="none" clip-path="url(#mx-clip-326-160-144-30-0)" font-size="12px"><rect fill="#FFFFFF" stroke="none" x="328" y="169" width="36" height="15" stroke-width="0"/><text x="327.5" y="179.5">Row 3</text></g><path d="M 0 30 L 0 0 L 180 0 L 180 30" fill="rgb(255, 255, 255)" stroke="#000000" stroke-miterlimit="10" pointer-events="none"/><path d="M 0 30 L 0 160 L 180 160 L 180 30" fill="none" stroke="#000000" stroke-miterlimit="10" pointer-events="none"/><path d="M 0 30 L 180 30" fill="none" stroke="#000000" stroke-miterlimit="10" pointer-events="none"/><path d="M 30 30 L 30 60 L 30 90 L 30 120 L 30 150" fill="none" stroke="#000000" stroke-miterlimit="10" pointer-events="none"/><g fill="rgb(0, 0, 0)" font-family="Helvetica" font-weight="bold" pointer-events="none" text-anchor="middle" font-size="12px"><rect fill="#FFFFFF" stroke="none" x="75" y="9" width="32" height="15" stroke-width="0"/><text x="89.5" y="19.5">Table</text></g><path d="M 0 30 M 180 30 M 180 60 L 0 60" fill="none" stroke="#000000" stroke-linecap="square" stroke-miterlimit="10" pointer-events="none"/><path d="M 0 30 M 30 30 M 30 60 M 0 60" fill="none" stroke="#000000" stroke-linecap="square" stroke-miterlimit="10" pointer-events="none"/><g fill="rgb(0, 0, 0)" font-family="Helvetica" font-weight="bold" pointer-events="none" clip-path="url(#mx-clip-0-30-30-30-0)" text-anchor="middle" font-size="12px"><rect fill="#FFFFFF" stroke="none" x="6" y="39" width="19" height="15" stroke-width="0"/><text x="14.5" y="49.5">PK</text></g><path d="M 30 30 M 180 30 M 180 60 M 30 60" fill="none" stroke="#000000" stroke-linecap="square" stroke-miterlimit="10" pointer-events="none"/><g fill="rgb(0, 0, 0)" font-family="Helvetica" font-weight="bold" text-decoration="underline" pointer-events="none" clip-path="url(#mx-clip-36-30-144-30-0)" font-size="12px"><rect fill="#FFFFFF" stroke="none" x="38" y="39" width="55" height="15" stroke-width="0"/><text x="37.5" y="49.5">UniqueID</text></g><path d="M 0 60 M 30 60 M 30 90 M 0 90" fill="none" stroke="#000000" stroke-linecap="square" stroke-miterlimit="10" pointer-events="none"/><path d="M 30 60 M 180 60 M 180 90 M 30 90" fill="none" stroke="#000000" stroke-linecap="square" stroke-miterlimit="10" pointer-events="none"/><g fill="rgb(0, 0, 0)" font-family="Helvetica" pointer-events="none" clip-path="url(#mx-clip-36-60-144-30-0)" font-size="12px"><rect fill="#FFFFFF" stroke="none" x="38" y="69" width="36" height="15" stroke-width="0"/><text x="37.5" y="79.5">Row 1</text></g><path d="M 0 90 M 30 90 M 30 120 M 0 120" fill="none" stroke="#000000" stroke-linecap="square" stroke-miterlimit="10" pointer-events="none"/><path d="M 30 90 M 180 90 M 180 120 M 30 120" fill="none" stroke="#000000" stroke-linecap="square" stroke-miterlimit="10" pointer-events="none"/><g fill="rgb(0, 0, 0)" font-family="Helvetica" pointer-events="none" clip-path="url(#mx-clip-36-90-144-30-0)" font-size="12px"><rect fill="#FFFFFF" stroke="none" x="38" y="99" width="36" height="15" stroke-width="0"/><text x="37.5" y="109.5">Row 2</text></g><path d="M 0 120 M 30 120 M 30 150 M 0 150" fill="none" stroke="#000000" stroke-linecap="square" stroke-miterlimit="10" pointer-events="none"/><path d="M 30 120 M 180 120 M 180 150 M 30 150" fill="none" stroke="#000000" stroke-linecap="square" stroke-miterlimit="10" pointer-events="none"/><g fill="rgb(0, 0, 0)" font-family="Helvetica" pointer-events="none" clip-path="url(#mx-clip-36-120-144-30-0)" font-size="12px"><rect fill="#FFFFFF" stroke="none" x="38" y="129" width="36" height="15" stroke-width="0"/><text x="37.5" y="139.5">Row 3</text></g></g></svg>